# Blender v2.76 (sub 0) OBJ File: 'asteroid.blend'
# www.blender.org
mtllib asteroid.mtl
o Asteroid_Icosphere
v -1.783176 3.157423 -2.187264
v -0.623617 3.419646 -2.279537
v -4.136988 -1.528819 1.175240
v 1.622063 -3.012534 -1.107285
v -2.764359 2.370088 -1.340167
v 0.011242 3.019686 2.574161
v -3.271742 2.084863 -0.140242
v -1.924542 3.110817 -0.535404
v -3.428460 0.084386 1.434556
v -1.127657 -3.141940 1.362692
v -3.526288 1.205355 -1.042213
v -3.326865 -1.851120 -2.151031
v 3.315345 2.078610 0.192092
v 1.677497 2.826964 1.998396
v -3.488970 -0.830072 -2.166265
v 2.454325 -1.478905 -2.751490
v 0.892076 -2.198434 3.836253
v -0.529430 -1.099091 -4.090514
v -1.530568 2.367935 2.067323
v -0.082300 -2.695156 3.227212
v -4.186931 -0.713751 0.795901
v -3.847708 0.187925 -0.543515
v 2.213019 2.683415 -2.315270
v -3.271944 1.840718 0.932036
v 0.112475 -1.622629 4.020147
v -1.052165 1.693250 -4.113129
v -1.423264 -0.272173 -4.052314
v -2.335668 2.112423 -2.554989
v 1.706754 -3.029854 0.171139
v -2.704852 0.116766 -2.710793
v 3.689623 1.837504 -1.209753
v -1.948996 -3.023728 0.875353
v 3.308379 -0.730487 -2.346540
v -0.899223 -1.466655 3.453547
v 3.176398 -0.164593 2.544505
v 1.450483 3.221935 0.923732
v -2.242297 -2.166627 2.063739
v -1.472705 -1.333647 -3.420503
v 3.871596 0.740806 1.546153
v 2.533928 1.975883 1.930760
v 0.492799 2.513123 -3.092595
v -0.349212 3.148993 -0.029523
v 3.267344 1.184023 2.241151
v -4.353748 -1.612557 -0.495422
v -1.930530 1.654793 2.510300
v 0.573979 -0.844695 -4.044802
v 0.528275 -3.143213 -1.789249
v 3.692719 -1.577900 -1.071348
v 1.168138 1.079678 3.139852
v 3.753358 -0.623585 -0.108652
v 3.379341 -1.003592 1.838246
v -1.351585 2.874982 -3.067893
v 1.766429 -1.157478 3.728364
v 3.667178 1.594924 1.024512
v -0.884260 1.836161 2.998022
v -1.073378 -3.132030 -1.461949
v -0.467529 3.159610 1.532913
v 3.709228 0.144063 -1.087636
v 3.605958 -1.445132 -1.878630
v 2.660886 3.124851 -0.854361
v -0.436671 0.126434 -4.552140
v -2.266935 -2.809002 -1.819118
v -2.916038 -0.990559 1.868705
v 0.627561 3.215132 -1.810096
v 2.894693 -2.446815 -1.574007
v 0.482250 2.215932 3.057291
v 2.681753 1.396219 -2.708434
v 0.310227 -2.120140 -3.148357
v 3.060341 -1.967882 0.490185
v 1.224500 -2.950664 1.059580
v 3.238048 2.395264 -1.831406
v 2.981815 0.133217 -2.548208
v 3.870637 0.807691 -0.134255
v 0.576682 -3.072934 2.294799
v -0.354720 0.674669 3.589938
v 1.886084 -2.119545 3.151299
v -3.599368 -2.470988 0.392379
v 0.714642 0.489363 -4.151877
vt 0.962265 0.728057
vt 0.899626 0.745931
vt 0.929662 0.684568
vt 0.750291 0.839492
vt 0.789824 0.780340
vt 0.836636 0.898960
vt 0.197601 0.657079
vt 0.236349 0.516526
vt 0.295964 0.556306
vt 0.406744 0.084655
vt 0.437681 0.165538
vt 0.371831 0.150081
vt 0.937341 0.802735
vt 0.739755 0.637792
vt 0.713864 0.558013
vt 0.790163 0.605118
vt 0.466004 0.054740
vt 0.531386 0.156801
vt 0.407272 0.036392
vt 0.227384 0.053071
vt 0.204144 0.126771
vt 0.146542 0.125405
vt 0.861072 0.549518
vt 0.871220 0.610164
vt 0.540887 0.052625
vt 0.483144 0.379133
vt 0.531410 0.373100
vt 0.566293 0.430810
vt 0.066866 0.123562
vt 0.065190 0.224005
vt 0.002406 0.127618
vt 0.881327 0.854767
vt 0.500670 0.000000
vt 0.321590 0.676758
vt 0.371831 0.718807
vt 0.319555 0.758685
vt 0.885719 0.501947
vt 0.883607 0.391689
vt 0.934425 0.485845
vt 0.000000 0.251617
vt 0.741391 0.942675
vt 0.814392 0.974820
vt 0.777879 1.000000
vt 0.635861 0.539129
vt 0.561478 0.627398
vt 0.446596 0.581324
vt 0.695576 0.850029
vt 0.128100 0.635461
vt 0.141764 0.513552
vt 0.359817 0.484969
vt 0.371774 0.529646
vt 0.372111 0.218880
vt 0.062065 0.038661
vt 0.000031 0.066144
vt 0.752155 0.392965
vt 0.762496 0.520997
vt 0.699231 0.418395
vt 0.845722 0.651852
vt 0.741723 0.694331
vt 0.371831 0.596760
vt 0.426111 0.638510
vt 0.365584 0.589421
vt 0.395927 0.271007
vt 0.515240 0.285039
vt 0.501419 0.319046
vt 0.561706 0.232608
vt 0.118925 0.447635
vt 0.173827 0.444650
vt 0.066425 0.272682
vt 0.752460 0.638720
vt 0.864116 0.319046
vt 0.634457 0.598443
vt 0.643782 0.659783
vt 0.207013 0.293435
vt 0.808222 0.487833
vt 0.608847 0.000134
vt 0.695638 0.677489
vt 0.696948 0.736016
vt 0.157426 0.707879
vt 0.668226 0.056560
vt 0.671934 0.003912
vt 0.198776 0.481993
vt 0.273634 0.449727
vt 0.804622 0.216599
vt 0.791229 0.301115
vt 0.747758 0.249256
vt 0.721640 0.137550
vt 0.191523 0.354536
vt 0.820792 0.282262
vt 0.950867 0.369066
vt 0.324779 0.115257
vt 0.323095 0.062677
vt 0.695576 0.356821
vt 0.647322 0.164260
vt 0.005872 0.513634
vt 0.041462 0.548754
vt 0.006022 0.612097
vt 0.429869 0.368933
vt 0.426298 0.477853
vt 0.044569 0.356401
vt 0.330651 0.269674
vt 0.101029 0.677297
vt 0.075503 0.599948
vt 0.682265 0.212902
vt 0.721592 0.099681
vt 0.985494 0.451521
vt 0.944144 0.577592
vt 0.268275 0.230026
vt 0.265275 0.163033
vt 0.610146 0.272739
vt 1.000000 0.368928
vt 0.371831 0.160502
vt 0.294827 0.352889
vt 0.179156 0.406072
vt 0.695576 0.633236
vt 0.912297 0.560646
vt 0.068301 0.408852
vt 0.837648 0.638720
vt 0.183490 0.418129
vt 0.674900 0.548703
vt 0.360881 0.086504
vt 0.170343 0.000000
vt 0.499177 0.455094
vt 0.730293 0.321189
vt 0.945692 0.869305
vt 0.006033 0.668066
vt 0.005872 0.612097
vt 0.055275 0.612495
vt 0.953257 0.914727
vt 0.586418 0.354851
vt 0.666332 0.438154
vt 0.252839 0.408852
vt 0.328739 0.431163
vt 0.388098 0.659674
vt 0.000000 0.475701
vt 0.041462 0.408852
vt 0.041403 0.513634
vt 0.489351 0.319046
vt 0.721592 0.319046
vt 0.354845 0.326581
vt 0.240882 0.751040
vn 0.504400 -0.821900 0.264500
vn 0.758900 -0.372000 0.534400
vn 0.308300 -0.695900 0.648600
vn 0.765200 -0.094700 0.636800
vn 0.745800 -0.089300 0.660100
vn 0.950900 -0.274500 0.143000
vn -0.415000 -0.162400 0.895200
vn -0.717800 -0.039200 0.695100
vn -0.592000 -0.231200 0.772100
vn 0.389500 -0.916000 -0.095600
vn 0.753600 -0.616000 0.229200
vn -0.919500 0.393000 -0.009100
vn -0.733300 0.652100 -0.192400
vn -0.979000 0.194700 -0.060300
vn -0.037100 -0.960100 0.277200
vn 0.023900 -0.999200 -0.032200
vn -0.318200 0.935800 -0.151800
vn -0.290500 0.948700 -0.124600
vn -0.946500 -0.096100 -0.307900
vn -0.993800 -0.103900 0.038700
vn -0.147900 -0.964400 0.218900
vn 0.795500 0.263300 -0.545700
vn 0.916100 -0.293300 -0.273400
vn 0.772600 -0.210200 -0.599000
vn -0.188300 0.957700 -0.217700
vn 0.186500 0.958900 -0.213600
vn 0.223000 0.770300 -0.597500
vn 0.914100 -0.272600 0.300100
vn -0.259500 -0.655800 0.708900
vn -0.608600 -0.425800 -0.669500
vn -0.320900 -0.324100 -0.889900
vn -0.532400 -0.625900 -0.569900
vn 0.520500 0.553500 -0.650100
vn 0.938700 0.286000 0.192400
vn 0.569800 -0.372900 -0.732300
vn 0.191400 -0.215200 -0.957600
vn 0.545700 0.192100 -0.815600
vn 0.642700 0.458500 0.613700
vn -0.344200 0.352900 0.870000
vn -0.469100 0.404900 0.784800
vn -0.936200 -0.302800 0.178100
vn -0.722100 -0.523200 0.452600
vn 0.805000 -0.593000 -0.017500
vn -0.603700 0.626400 -0.493100
vn -0.208300 0.551300 -0.807900
vn -0.468300 0.032000 -0.882900
vn -0.853300 0.393300 -0.342400
vn 0.259200 -0.405200 0.876700
vn 0.580100 0.174600 0.795600
vn 0.202900 0.161000 -0.965800
vn -0.340300 -0.699500 0.628400
vn 0.783200 -0.510700 -0.354400
vn 0.478100 -0.731000 -0.486800
vn 0.229300 -0.956300 -0.181400
vn -0.548800 0.779600 0.301600
vn -0.843600 0.300000 0.445300
vn 0.309200 0.927600 -0.209700
vn 0.044400 0.019700 0.998800
vn 0.354800 -0.434200 -0.827900
vn -0.183200 -0.434800 -0.881700
vn 0.094200 0.964400 0.246900
vn -0.742900 0.072200 -0.665400
vn 0.140800 0.539800 0.830000
vn 0.430600 0.506900 0.746700
vn -0.470300 -0.882400 0.012800
vn -0.734200 -0.008700 0.678800
vn -0.968400 -0.008400 0.249300
vn -0.761400 -0.624900 -0.172400
vn -0.250700 -0.956800 -0.147300
vn 0.335200 0.847100 0.412400
vn -0.802500 -0.569300 -0.178400
vn 0.570000 0.809600 -0.140400
vn -0.085800 0.715700 0.693100
vn -0.460800 -0.730400 -0.504100
vn -0.079200 0.936600 0.341200
vn -0.270900 0.954200 0.126800
vn 0.089300 -0.808300 -0.581900
vn 0.558400 0.035400 -0.828800
usemtl asteroid
s 1
f 1/1/1 28/2/2 52/3/3
f 15/4/4 30/5/5 22/6/6
f 78/7/7 72/8/8 67/9/9
f 1/10/1 8/11/10 5/12/11
f 1/1/1 5/13/11 28/2/2
f 48/14/12 69/15/13 50/16/14
f 2/17/15 42/18/16 8/11/10
f 8/11/10 1/10/1 2/17/15
f 2/17/15 1/10/1 52/19/3
f 69/20/13 29/21/17 70/22/18
f 50/16/14 39/23/19 73/24/20
f 2/17/15 64/25/21 42/18/16
f 3/26/22 21/27/23 9/28/24
f 74/29/25 10/30/26 20/31/27
f 30/5/5 28/2/2 11/32/28
f 41/33/29 64/25/21 2/17/15
f 41/34/29 2/35/15 52/36/3
f 43/37/30 49/38/31 40/39/32
f 37/40/33 20/31/27 10/30/26
f 44/41/34 21/42/23 3/43/22
f 45/44/35 75/45/36 34/46/37
f 12/47/38 30/5/5 15/4/4
f 46/48/39 16/49/40 72/8/8
f 72/8/8 31/50/41 71/51/42
f 5/12/11 8/11/10 7/52/43
f 45/44/35 34/46/37 9/28/24
f 30/5/5 11/32/28 22/6/6
f 76/53/44 74/29/25 17/54/45
f 53/55/46 51/56/47 76/57/44
f 26/58/48 28/2/2 30/5/5
f 51/56/47 50/16/14 69/15/13
f 46/48/39 72/8/8 78/7/7
f 26/58/48 30/5/5 27/59/49
f 10/30/26 74/29/25 70/22/18
f 20/60/27 34/46/37 25/61/50
f 67/9/9 23/62/51 41/34/29
f 24/63/52 19/64/53 45/65/35
f 53/55/46 49/38/31 43/37/30
f 76/53/44 69/20/13 70/22/18
f 24/63/52 7/52/43 8/11/10
f 24/63/52 8/11/10 57/66/54
f 24/63/52 57/66/54 19/64/53
f 65/67/55 59/68/56 16/49/40
f 32/69/57 37/40/33 10/30/26
f 26/58/48 27/59/49 61/70/58
f 53/55/46 75/71/36 49/38/31
f 8/11/10 42/18/16 57/66/54
f 75/45/36 55/72/59 66/73/60
f 10/30/26 70/22/18 56/74/61
f 35/75/62 43/37/30 39/23/19
f 76/53/44 70/22/18 74/29/25
f 23/76/51 64/25/21 41/33/29
f 27/59/49 18/77/63 61/70/58
f 12/47/38 38/78/64 30/5/5
f 46/48/39 78/7/7 61/79/58
f 60/80/65 64/25/21 23/76/51
f 60/80/65 23/76/51 71/81/42
f 33/82/66 59/68/56 58/83/67
f 33/82/66 58/83/67 72/8/8
f 72/8/8 71/51/42 67/9/9
f 60/84/65 31/85/41 13/86/68
f 35/75/62 39/23/19 51/56/47
f 60/84/65 13/86/68 36/87/69
f 62/88/70 32/69/57 56/74/61
f 51/56/47 39/23/19 50/16/14
f 60/84/65 71/89/42 31/85/41
f 75/71/36 66/90/60 49/38/31
f 65/91/55 29/21/17 69/20/13
f 65/91/55 69/20/13 48/92/12
f 53/55/46 76/57/44 17/93/45
f 36/94/69 42/18/16 64/25/21
f 36/94/69 64/25/21 60/80/65
f 13/95/68 54/96/71 40/97/32
f 77/98/72 3/26/22 37/99/33
f 77/100/72 37/40/33 32/69/57
f 68/101/73 62/88/70 56/74/61
f 77/100/72 32/69/57 62/88/70
f 18/102/63 68/103/73 46/48/39
f 44/41/34 22/6/6 21/42/23
f 14/104/74 36/94/69 13/105/68
f 14/106/74 13/107/68 40/39/32
f 78/7/7 67/9/9 41/34/29
f 47/108/75 29/21/17 4/109/76
f 14/104/74 6/110/77 36/94/69
f 27/59/49 38/78/64 18/77/63
f 47/108/75 56/74/61 70/22/18
f 47/108/75 70/22/18 29/21/17
f 66/90/60 6/111/77 14/106/74
f 66/90/60 14/106/74 40/39/32
f 66/90/60 40/39/32 49/38/31
f 65/91/55 16/112/40 68/101/73
f 36/94/69 6/110/77 57/66/54
f 36/94/69 57/66/54 42/18/16
f 45/44/35 55/72/59 75/45/36
f 68/101/73 38/113/64 62/88/70
f 65/91/55 68/101/73 47/108/75
f 77/100/72 62/88/70 12/114/38
f 66/73/60 55/72/59 6/115/77
f 54/116/71 39/23/19 43/37/30
f 16/49/40 59/68/56 33/82/66
f 37/99/33 34/46/37 20/60/27
f 77/100/72 12/114/38 44/117/34
f 53/55/46 43/37/30 35/75/62
f 48/14/12 50/16/14 58/118/67
f 48/119/12 58/83/67 59/68/56
f 6/115/77 55/72/59 19/120/53
f 6/110/77 19/64/53 57/66/54
f 54/116/71 43/37/30 40/39/32
f 25/61/50 34/46/37 75/45/36
f 62/88/70 38/113/64 12/114/38
f 65/91/55 48/92/12 59/121/56
f 76/53/44 51/122/47 69/20/13
f 9/28/24 34/46/37 63/123/78
f 19/120/53 55/72/59 45/44/35
f 65/91/55 47/108/75 4/109/76
f 63/123/78 34/46/37 37/99/33
f 16/49/40 33/82/66 72/8/8
f 47/108/75 68/101/73 56/74/61
f 3/26/22 9/28/24 63/123/78
f 53/55/46 35/75/62 51/56/47
f 3/26/22 63/123/78 37/99/33
f 74/29/25 20/31/27 17/54/45
f 53/55/46 25/124/50 75/71/36
f 11/32/28 28/2/2 5/13/11
f 11/32/28 5/13/11 7/125/43
f 73/126/20 54/127/71 13/128/68
f 22/6/6 11/32/28 7/125/43
f 22/6/6 7/125/43 24/129/52
f 22/130/6 24/131/52 9/28/24
f 50/132/14 73/133/20 58/83/67
f 20/60/27 25/61/50 17/134/45
f 44/41/34 15/4/4 22/6/6
f 72/8/8 58/83/67 31/50/41
f 65/91/55 4/109/76 29/21/17
f 53/55/46 17/93/45 25/124/50
f 31/50/41 58/83/67 73/133/20
f 21/135/23 22/136/6 9/137/24
f 10/30/26 56/74/61 32/69/57
f 67/9/9 71/51/42 23/62/51
f 77/98/72 44/138/34 3/26/22
f 27/59/49 30/5/5 38/78/64
f 31/85/41 73/139/20 13/86/68
f 68/101/73 18/140/63 38/113/64
f 24/131/52 45/44/35 9/28/24
f 73/24/20 39/23/19 54/116/71
f 26/141/48 61/79/58 78/7/7
f 26/141/48 78/7/7 41/34/29
f 44/41/34 12/47/38 15/4/4
f 26/141/48 41/34/29 52/36/3
f 46/48/39 68/103/73 16/49/40
f 18/102/63 46/48/39 61/79/58
f 26/58/48 52/3/3 28/2/2
