# Blender v2.76 (sub 0) OBJ File: ''
# www.blender.org
mtllib cube3.mtl
o cubo
v 1.000000 -1.000000 -1.000000
v 1.000000 -1.000000 1.000000
v -1.000000 -1.000000 1.000000
v -1.000000 -1.000000 -1.000000
v 1.000000 1.000000 -0.999999
v -1.000000 1.000000 -1.000000
v -1.000000 1.000000 1.000000
v 0.999999 1.000000 1.000001
vt 0.332980 0.667020
vt -0.001061 0.667020
vt -0.001061 0.332980
vt 0.332980 0.332980
vt -0.001061 -0.001061
vt 0.332980 -0.001061
vt 0.667020 0.667021
vt 0.667020 0.332980
vt 0.332979 1.001061
vt -0.001061 1.001061
vt 0.667020 -0.001061
vt 1.001061 -0.001061
vt 1.001061 0.332979
vn 0.000000 1.000000 0.000000
vn 0.000000 -1.000000 -0.000000
vn -1.000000 -0.000000 -0.000000
vn 0.000000 0.000000 -1.000000
vn 1.000000 0.000000 0.000000
vn -0.000000 -0.000000 1.000000
usemtl Material.001
s 1
f 1/1/1 4/2/1 3/3/1 2/4/1
f 5/4/2 8/3/2 7/5/2 6/6/2
f 1/7/3 2/1/3 8/4/3 5/8/3
f 2/2/4 3/1/4 7/9/4 8/10/4
f 3/4/5 4/6/5 6/11/5 7/8/5
f 5/11/6 6/12/6 4/13/6 1/8/6
